<svg xmlns="http://www.w3.org/2000/svg" width="410" height="404" viewBox="0 0 410 404" fill="none">
  <g clip-path="url(#clip0_17_40)">
    <path d="M399.641 59.5246L215.645 388.545C211.844 395.368 202.084 395.67 197.852 389.119L10.5817 59.8318C6.04463 52.7567 12.5023 43.6056 20.5331 45.5674L205.219 90.8536C206.418 91.1503 207.666 91.1325 208.858 90.8016L389.476 40.2654C397.432 38.0662 404.325 46.7789 400.344 54.2408C400.061 54.7682 399.79 55.3077 399.532 55.8587L399.641 59.5246Z" fill="url(#paint0_linear_17_40)"/>
    <path d="M292.965 1.5744L156.801 35.1792C154.563 35.7418 152.755 37.312 151.932 39.4527L102.384 169.62C101.019 173.215 103.903 176.989 107.706 176.466L150.933 170.576C154.762 170.051 157.711 173.917 156.263 177.525L126.346 252.561C124.918 256.098 127.729 259.883 131.572 259.424L161.343 255.933C165.201 255.472 168.023 259.293 166.546 262.849L132.306 346.099C130.422 350.688 136.709 354.216 139.984 350.297L141.202 348.833L285.745 101.62C287.851 97.9311 284.979 93.238 280.752 94.2282L236.493 104.516C232.674 105.409 229.807 101.56 231.219 97.9879L298.695 6.78077C301.158 3.25268 297.783 -1.22408 293.75 0.0578416L292.965 1.5744Z" fill="url(#paint1_linear_17_40)"/>
  </g>
  <defs>
    <linearGradient id="paint0_linear_17_40" x1="6.00017" y1="32.9999" x2="235" y2="344" gradientUnits="userSpaceOnUse">
      <stop stop-color="#41D1FF"/>
      <stop offset="1" stop-color="#BD34FE"/>
    </linearGradient>
    <linearGradient id="paint1_linear_17_40" x1="194.651" y1="8.81818" x2="236.076" y2="292.989" gradientUnits="userSpaceOnUse">
      <stop stop-color="#FFEA83"/>
      <stop offset="0.0833333" stop-color="#FFDD35"/>
      <stop offset="1" stop-color="#FFA800"/>
    </linearGradient>
    <clipPath id="clip0_17_40">
      <rect width="400" height="400" fill="white" transform="translate(5)"/>
    </clipPath>
  </defs>
</svg>
